<!--?xml version="1.0" standalone="no"?-->
              <svg id="sw-js-blob-svg" viewBox="0 0 100 100" xmlns="http://www.w3.org/2000/svg" version="1.1">
                    <defs> 
                        <linearGradient id="sw-gradient" x1="0" x2="1" y1="1" y2="0">
                            <stop id="stop1" stop-color="rgba(80.897, 30.967, 7.336, 1)" offset="0%"></stop>
                            <stop id="stop2" stop-color="rgba(233.442, 167.777, 59.39, 1)" offset="100%"></stop>
                        </linearGradient>
                    </defs>
                <path fill="url(#sw-gradient)" d="M23.1,-27.9C28.7,-22.9,31.2,-14.4,34,-5C36.8,4.3,39.9,14.6,37.1,23.4C34.3,32.2,25.7,39.5,16.3,41.5C6.9,43.5,-3.2,40,-11,35.1C-18.8,30.1,-24.3,23.7,-27.9,16.6C-31.5,9.4,-33.2,1.6,-32.4,-6.3C-31.7,-14.2,-28.6,-22.3,-22.8,-27.3C-17,-32.3,-8.5,-34.2,0.1,-34.4C8.8,-34.5,17.5,-32.9,23.1,-27.9Z" width="100%" height="100%" transform="translate(50 50)" stroke-width="0" style="transition: all 0.3s ease 0s;"></path>
              </svg>